<?xml version="1.0" encoding="UTF-8"?>
<svg width="318px" height="48px" viewBox="0 0 318 48" version="1.1" xmlns="http://www.w3.org/2000/svg" xmlns:xlink="http://www.w3.org/1999/xlink">
    <!-- Generator: Sketch 53 (72520) - https://sketchapp.com -->
    <title>logo_cuatromedios_2019</title>
    <desc>Created with Sketch.</desc>
    <g id="Page-1" stroke="none" stroke-width="1" fill="none" fill-rule="evenodd">
        <g id="cuatromedios" transform="translate(-40.000000, -30.000000)">
            <g id="logo_cuatromedios_2019" transform="translate(40.000000, 30.000000)">
                <path d="M144.914,25.52 C144.914,20.041 140.473,15.6 134.993,15.6 L134.993,35.442 C140.473,35.441 144.914,31 144.914,25.52 Z" id="Path" fill="#A6287C"></path>
                <path d="M271.056,25.523 C271.056,31.002 275.497,35.443 280.976,35.443 L280.976,15.602 C275.497,15.602 271.056,20.044 271.056,25.523 Z" id="Path" fill="#E65050"></path>
                <path d="M66.962,35.441 C72.441,35.441 76.883,31 76.883,25.521 L57.041,25.521 C57.041,31 61.483,35.441 66.962,35.441 Z" id="Path" fill="#339373"></path>
                <path d="M22.538,33.537 C20.486,35.59 17.651,36.859 14.52,36.859 C8.258,36.859 3.182,31.781 3.182,25.52 C3.182,19.258 8.258,14.181 14.52,14.181 C17.651,14.181 20.486,15.45 22.538,17.502 L24.542,15.498 C21.978,12.933 18.435,11.347 14.521,11.347 C6.693,11.347 0.347,17.693 0.347,25.52 C0.347,33.347 6.693,39.693 14.521,39.693 C18.435,39.693 21.978,38.107 24.542,35.541 L22.538,33.537 Z" id="Path" fill="#262626"></path>
                <path d="M81.235,25.52 C81.235,25.517 81.235,25.514 81.235,25.51 L81.235,11.347 L78.4,11.347 L78.4,17.042 C75.815,13.591 71.706,11.347 67.061,11.347 C59.234,11.347 52.888,17.693 52.888,25.52 C52.888,33.348 59.234,39.694 67.061,39.694 C71.706,39.694 75.815,37.45 78.4,33.999 L78.4,39.694 L81.235,39.694 L81.235,25.529 C81.235,25.526 81.235,25.523 81.235,25.52 Z M67.062,36.859 C60.8,36.859 55.724,31.781 55.724,25.52 C55.724,19.258 60.8,14.181 67.062,14.181 C73.324,14.181 78.4,19.258 78.4,25.521 C78.4,31.781 73.323,36.859 67.062,36.859 Z" id="Shape" fill="#262626" fill-rule="nonzero"></path>
                <polygon id="Path" fill="#262626" points="103.913 11.347 95.408 11.347 95.408 0.008 92.573 0.008 92.573 11.347 84.07 11.347 84.07 14.182 92.573 14.182 92.573 39.693 95.408 39.693 95.408 14.182 103.913 14.182"></polygon>
                <path d="M109.582,17.042 L109.582,11.348 L106.747,11.348 L106.747,39.694 L109.582,39.694 L109.582,25.51 C109.588,19.253 114.661,14.182 120.92,14.182 L120.921,14.182 L120.921,11.347 C116.276,11.347 112.167,13.59 109.582,17.042 Z" id="Path" fill="#262626"></path>
                <path d="M135.094,11.347 C127.267,11.347 120.921,17.693 120.921,25.52 C120.921,33.348 127.267,39.694 135.094,39.694 C142.921,39.694 149.267,33.348 149.267,25.52 C149.267,17.692 142.921,11.347 135.094,11.347 Z M135.093,36.859 C128.831,36.859 123.755,31.781 123.755,25.52 C123.755,19.258 128.831,14.181 135.093,14.181 C141.356,14.181 146.433,19.258 146.433,25.52 C146.433,31.781 141.355,36.859 135.093,36.859 Z" id="Shape" fill="#262626" fill-rule="nonzero"></path>
                <path d="M38.715,39.693 C44.978,39.693 50.054,34.617 50.054,28.353 L50.054,11.347 L47.219,11.347 L47.219,28.354 C47.219,33.051 43.411,36.858 38.715,36.858 C34.019,36.858 30.211,33.051 30.211,28.354 L30.211,11.347 L27.377,11.347 L27.377,28.354 C27.377,34.617 32.453,39.693 38.715,39.693 Z" id="Path" fill="#262626"></path>
                <path d="M183.283,11.347 C179.012,11.347 175.295,13.712 173.361,17.201 C171.429,13.712 167.712,11.347 163.441,11.347 C160.049,11.347 157.015,12.844 154.937,15.203 L154.937,11.347 L152.102,11.347 L152.102,22.686 L152.102,39.694 L154.937,39.694 L154.937,22.686 C154.937,17.989 158.745,14.182 163.441,14.182 C168.137,14.182 171.945,17.989 171.945,22.686 L171.945,39.694 L174.779,39.694 L174.779,39.694 L174.779,22.686 C174.779,17.989 178.588,14.182 183.283,14.182 C187.98,14.182 191.787,17.989 191.787,22.686 L191.787,39.694 L194.621,39.694 L194.621,22.686 C194.621,16.423 189.544,11.347 183.283,11.347 Z" id="Path" fill="#262626"></path>
                <g id="Group" transform="translate(261.000000, 5.000000)" fill="#262626">
                    <rect id="Rectangle" x="0.235" y="6.346" width="2.834" height="28.347"></rect>
                    <rect id="Rectangle" x="0.235" y="0.677" width="2.834" height="2.834"></rect>
                </g>
                <path d="M281.079,11.347 C273.251,11.347 266.905,17.693 266.905,25.52 C266.905,33.348 273.251,39.694 281.079,39.694 C288.907,39.694 295.253,33.348 295.253,25.52 C295.253,17.692 288.907,11.347 281.079,11.347 Z M281.079,36.859 C274.817,36.859 269.741,31.781 269.741,25.52 C269.741,19.258 274.817,14.181 281.079,14.181 C287.341,14.181 292.417,19.258 292.417,25.52 C292.417,31.781 287.341,36.859 281.079,36.859 Z" id="Shape" fill="#262626" fill-rule="nonzero"></path>
                <path d="M308.007,39.693 C305.575,39.693 303.126,38.873 301.29,37.445 C299.224,35.838 298.085,33.615 298.087,31.189 L300.921,31.189 C300.921,33.154 302.067,34.459 303.03,35.207 C304.38,36.256 306.192,36.857 308.007,36.857 C311.415,36.857 315.095,34.691 315.095,31.189 C315.095,28.439 312.749,27.748 307.775,26.918 C303.459,26.199 298.087,25.303 298.087,19.851 C298.087,14.598 303.235,11.347 308.007,11.347 C312.779,11.347 317.929,14.598 317.929,19.851 L315.095,19.851 C315.095,16.35 311.415,14.182 308.007,14.182 C304.599,14.182 300.921,16.349 300.921,19.851 C300.921,22.601 303.265,23.293 308.239,24.122 C312.555,24.842 317.928,25.736 317.928,31.189 C317.929,36.441 312.778,39.693 308.007,39.693 Z" id="Path" fill="#262626"></path>
                <path d="M254.147,0.008 L254.147,17.042 C251.563,13.591 247.454,11.347 242.809,11.347 C234.981,11.347 228.635,17.693 228.635,25.52 C228.635,33.348 234.981,39.694 242.809,39.694 C247.454,39.694 251.563,37.45 254.147,33.999 L254.147,39.694 L256.983,39.694 L256.983,0.008 L254.147,0.008 Z M242.81,36.859 C236.548,36.859 231.472,31.781 231.472,25.52 C231.472,19.258 236.548,14.181 242.81,14.181 C249.072,14.181 254.148,19.258 254.148,25.52 C254.147,31.781 249.071,36.859 242.81,36.859 Z" id="Shape" fill="#262626" fill-rule="nonzero"></path>
                <path d="M224.284,28.355 L225.417,28.355 C225.603,27.439 225.702,26.492 225.702,25.521 C225.702,17.693 219.356,11.347 211.528,11.347 C203.7,11.347 197.355,17.693 197.355,25.521 C197.355,33.349 203.7,39.695 211.528,39.695 C217.339,39.695 222.327,36.195 224.514,31.191 L221.336,31.191 C219.375,34.576 215.721,36.859 211.527,36.859 C206.246,36.859 201.82,33.244 200.56,28.355 L222.494,28.355 L224.284,28.355 Z M200.188,25.521 C200.188,19.258 205.266,14.182 211.528,14.182 C217.79,14.182 222.866,19.258 222.866,25.521 L200.188,25.521 Z" id="Shape" fill="#262626" fill-rule="nonzero"></path>
                <path d="M221.337,24.104 C220.648,19.298 216.524,15.6 211.528,15.6 C206.532,15.6 202.409,19.298 201.719,24.104 L221.337,24.104 Z" id="Path" fill="#076DB5"></path>
            </g>
        </g>
    </g>
</svg>
